<svg width="20" height="14" viewBox="0 0 20 14" fill="none" xmlns="http://www.w3.org/2000/svg">
<path fill-rule="evenodd" clip-rule="evenodd" d="M19.5492 0.455751C19.8377 0.747461 19.9997 1.14305 19.9997 1.55553C19.9997 1.96801 19.8377 2.3636 19.5492 2.65531L8.78002 13.5442C8.49151 13.8358 8.10027 13.9996 7.69232 13.9996C7.28438 13.9996 6.89314 13.8358 6.60463 13.5442L0.450785 7.32197C0.170542 7.02859 0.0154738 6.63565 0.0189791 6.22779C0.0224843 5.81993 0.184283 5.42978 0.469526 5.14137C0.754769 4.85295 1.14063 4.68936 1.54401 4.68581C1.94739 4.68227 2.33601 4.83906 2.62617 5.12242L7.69232 10.2449L17.3739 0.455751C17.6624 0.164129 18.0536 0.000305176 18.4616 0.000305176C18.8695 0.000305176 19.2607 0.164129 19.5492 0.455751Z" fill="#63006F"/>
</svg>
